<?xml version="1.0" encoding="UTF-8"?>
<svg width="37px" height="37px" viewBox="0 0 37 37" version="1.1" xmlns="http://www.w3.org/2000/svg" xmlns:xlink="http://www.w3.org/1999/xlink">
    <!-- Generator: Sketch 57.1 (83088) - https://sketch.com -->
    <title>Group 5</title>
    <desc>Created with Sketch.</desc>
    <defs>
        <linearGradient x1="100%" y1="0%" x2="0%" y2="100%" id="linearGradient-1">
            <stop stop-color="#DC9870" offset="0%"></stop>
            <stop stop-color="#B68263" offset="100%"></stop>
        </linearGradient>
    </defs>
    <g id="Page-1" stroke="none" stroke-width="1" fill="none" fill-rule="evenodd" stroke-linecap="round" stroke-linejoin="round">
        <g id="Landing-Page" transform="translate(-207.000000, -831.000000)" stroke="url(#linearGradient-1)">
            <g id="Group-2" transform="translate(208.000000, 832.000000)">
                <g id="Group-5" transform="translate(17.500000, 17.500000) scale(-1, 1) translate(-17.500000, -17.500000) ">
                    <path d="M13.0972753,13.0973062 C13.0972753,5.86870119 15.0700414,0 17.4999846,0 C19.9299277,0 21.9026938,5.86870119 21.9026938,13.0973062 C29.1312988,13.0973062 35,15.0700723 35,17.5000154 C35,19.9299586 29.1312988,21.9027247 21.9026938,21.9027247 C21.9026938,29.1313297 19.9299277,35 17.4999846,35 C15.0700414,35 13.0972753,29.1313297 13.0972753,21.9027247 C5.86867032,21.9027247 0,19.9299586 0,17.5000154 C0,15.0700723 5.86867032,13.0973062 13.0972753,13.0973062 Z" id="Stroke-1"></path>
                    <path d="M18,11.7183846 C23.1568026,6.56147819 28.7508651,3.78219893 30.4843331,5.51566692 C32.2178011,7.24913491 29.4385218,12.8431974 24.2816154,18 C29.4385218,23.1568026 32.2178011,28.7508651 30.4843331,30.4843331 C28.7508651,32.2178011 23.1568026,29.4385218 18,24.2816154 C12.8431974,29.4385218 7.24913491,32.2178011 5.51566692,30.4843331 C3.78219893,28.7508651 6.56147819,23.1568026 11.7183846,18 C6.56147819,12.8431974 3.78219893,7.24913491 5.51566692,5.51566692 C7.24913491,3.78219893 12.8431974,6.56147819 18,11.7183846 Z" id="Stroke-2"></path>
                    <path d="M20.0694668,11.8173669 C26.8439144,9.26159198 33.0413879,9.03546098 33.900562,11.3127465 C34.759633,13.5899289 29.9570807,17.5137242 23.1826331,20.0694992 C25.738408,26.8439468 25.964539,33.0414408 23.6872535,33.9005531 C21.4100711,34.7596653 17.4862758,29.957113 14.9305008,23.1826654 C8.15605324,25.7384404 1.9585592,25.9645713 1.09944694,23.6872859 C0.24033468,21.4101035 5.04288702,17.4863081 11.8173346,14.9305332 C9.26155965,8.15608557 9.03542865,1.95861214 11.3127141,1.09943804 C13.5898965,0.240367009 17.5136919,5.04291935 20.0694668,11.8173669 Z" id="Stroke-3"></path>
                    <path d="M23.240784,14.9925218 C30.0119772,17.6467915 34.7849624,21.6496264 33.8927518,23.9258091 C33.0005412,26.2019918 26.7787749,25.8950291 20.0074782,23.2407595 C17.3532085,30.0119527 13.3503736,34.7849792 11.0741909,33.8927479 C8.79800821,33.0005166 9.1049709,26.7787504 11.7592405,20.0074536 C4.98804733,17.353184 0.215020768,13.3503491 1.10725209,11.0741664 C1.99948341,8.79798364 8.22124964,9.10494634 14.9925464,11.759216 C17.646816,4.98802276 21.6496509,0.215037614 23.9258336,1.10724823 C26.2020164,1.99945885 25.8950537,8.22122508 23.240784,14.9925218 Z" id="Stroke-4"></path>
                </g>
            </g>
        </g>
    </g>
</svg>