<?xml version="1.0" encoding="UTF-8"?>
<svg width="37px" height="37px" viewBox="0 0 37 37" version="1.1" xmlns="http://www.w3.org/2000/svg" xmlns:xlink="http://www.w3.org/1999/xlink">
    <!-- Generator: Sketch 57.1 (83088) - https://sketch.com -->
    <title>Group 3 Copy</title>
    <desc>Created with Sketch.</desc>
    <defs>
        <linearGradient x1="0%" y1="0%" x2="100%" y2="100%" id="linearGradient-1">
            <stop stop-color="#DC9870" offset="0%"></stop>
            <stop stop-color="#B68263" offset="100%"></stop>
        </linearGradient>
    </defs>
    <g id="Page-1" stroke="none" stroke-width="1" fill="none" fill-rule="evenodd" stroke-linecap="round" stroke-linejoin="round">
        <g id="Landing-Page" transform="translate(-404.000000, -831.000000)" stroke="url(#linearGradient-1)">
            <g id="Group-2-Copy" transform="translate(404.000000, 832.000000)">
                <g id="Group-3-Copy" transform="translate(1.000000, 0.000000)">
                    <path d="M9.51621598,9.51627476 C9.51621598,4.26409207 13.0936997,0 17.5000392,0 C21.9063787,0 25.4837252,4.26409207 25.4837252,9.51627476 C30.7359079,9.51627476 35,13.0936213 35,17.4999608 C35,21.9063003 30.7359079,25.483784 25.4837252,25.483784 C25.4837252,30.7359275 21.9063787,35 17.5000392,35 C13.0936997,35 9.51621598,30.7359275 9.51621598,25.483784 C4.26407248,25.483784 0,21.9063003 0,17.4999608 C0,13.0936213 4.26407248,9.51627476 9.51621598,9.51627476 Z" id="Stroke-1"></path>
                    <path d="M17.5000407,6.15230376 C21.2324438,2.41990062 26.8052522,1.93193528 29.9366584,5.06334157 C33.0680647,8.19474785 32.5800994,13.7675562 28.8476962,17.4999593 C32.5800994,21.2325594 33.0680647,26.8051708 29.9366584,29.9366361 C26.8052522,33.0680818 21.2324438,32.5801165 17.5000407,28.8475952 C13.7674406,32.5801165 8.19482924,33.0680818 5.06336388,29.9366361 C1.93191821,26.8051708 2.41988355,21.2325594 6.15240484,17.4999593 C2.41988355,13.7675562 1.93191821,8.19474785 5.06336388,5.06334157 C8.19482924,1.93193528 13.7674406,2.41990062 17.5000407,6.15230376 Z" id="Stroke-2"></path>
                </g>
            </g>
        </g>
    </g>
</svg>