<?xml version="1.0" encoding="UTF-8"?>
<svg width="956px" height="385px" viewBox="0 0 956 385" version="1.1" xmlns="http://www.w3.org/2000/svg" xmlns:xlink="http://www.w3.org/1999/xlink">
    <!-- Generator: Sketch 57.1 (83088) - https://sketch.com -->
    <title>Group 3 Copy 2</title>
    <desc>Created with Sketch.</desc>
    <g id="Page-1" stroke="none" stroke-width="1" fill="none" fill-rule="evenodd" stroke-linecap="round" stroke-linejoin="round">
        <g id="Landing-Page" transform="translate(-243.000000, -2116.000000)" stroke="#D0C0AB" stroke-width="1.5">
            <g id="Group-3-Copy-2" transform="translate(150.000000, 2117.000000)">
                <path d="M310.500533,310.502451 C310.500533,139.131233 427.228716,0 571.001279,0 C714.773842,0 831.497549,139.131233 831.497549,310.502451 C1002.86877,310.502451 1142,427.226158 1142,570.998721 C1142,714.771284 1002.86877,831.499467 831.497549,831.499467 C831.497549,1002.86941 714.773842,1142 571.001279,1142 C427.228716,1142 310.500533,1002.86941 310.500533,831.499467 C139.130593,831.499467 0,714.771284 0,570.998721 C0,427.226158 139.130593,310.502451 310.500533,310.502451 Z" id="Stroke-1"></path>
                <path d="M570.50132,202.286822 C691.611367,81.1767752 872.439389,65.3431414 974.048124,166.951876 C1075.65686,268.560611 1059.82322,449.388633 938.713178,570.49868 C1059.82322,691.615116 1075.65686,872.436748 974.048124,974.0474 C872.439389,1075.65741 691.611367,1059.82378 570.50132,938.709898 C449.384884,1059.82378 268.563252,1075.65741 166.9526,974.0474 C65.3425875,872.436748 81.1762213,691.615116 202.290102,570.49868 C81.1762213,449.388633 65.3425875,268.560611 166.9526,166.951876 C268.563252,65.3431414 449.384884,81.1767752 570.50132,202.286822 Z" id="Stroke-2"></path>
            </g>
        </g>
    </g>
</svg>