<?xml version="1.0" encoding="UTF-8"?>
<svg width="423px" height="847px" viewBox="0 0 423 847" version="1.1" xmlns="http://www.w3.org/2000/svg" xmlns:xlink="http://www.w3.org/1999/xlink">
    <!-- Generator: Sketch 57.1 (83088) - https://sketch.com -->
    <title>Group 5</title>
    <desc>Created with Sketch.</desc>
    <g id="Page-1" stroke="none" stroke-width="1" fill="none" fill-rule="evenodd" stroke-linecap="round" stroke-linejoin="round">
        <g id="Landing-Page" transform="translate(0.000000, -1084.000000)" stroke="#D0C0AB" stroke-width="1.5">
            <g id="Group-8" transform="translate(-423.000000, 567.000000)">
                <g id="Group-5" transform="translate(0.000000, 518.000000)">
                    <path d="M316.205648,316.206393 C316.205648,141.687214 363.833857,0 422.499627,0 C481.165398,0 528.793607,141.687214 528.793607,316.206393 C703.312786,316.206393 845,363.834602 845,422.500373 C845,481.166143 703.312786,528.794352 528.793607,528.794352 C528.793607,703.313531 481.165398,845 422.499627,845 C363.833857,845 316.205648,703.313531 316.205648,528.794352 C141.686469,528.794352 0,481.166143 0,422.500373 C0,363.834602 141.686469,316.206393 316.205648,316.206393 Z" id="Stroke-1"></path>
                    <path d="M423,272.724431 C546.366584,149.355363 680.193772,82.8664513 721.663661,124.336339 C763.133549,165.806228 696.644637,299.633416 573.275569,423 C696.644637,546.366584 763.133549,680.193772 721.663661,721.663661 C680.193772,763.133549 546.366584,696.644637 423,573.275569 C299.633416,696.644637 165.806228,763.133549 124.336339,721.663661 C82.8664513,680.193772 149.355363,546.366584 272.724431,423 C149.355363,299.633416 82.8664513,165.806228 124.336339,124.336339 C165.806228,82.8664513 299.633416,149.355363 423,272.724431 Z" id="Stroke-2"></path>
                    <path d="M484.556517,285.255802 C648.169691,223.529964 797.848064,218.068558 818.598421,273.068452 C839.346288,328.065858 723.357372,422.83146 559.744198,484.557298 C621.470036,648.170472 626.931442,797.849343 571.931548,818.598206 C516.934142,839.347068 422.16854,723.358153 360.442702,559.744979 C196.829528,621.470817 47.1506569,626.932223 26.4017942,571.932329 C5.65293151,516.934923 121.641847,422.169321 285.255021,360.443483 C223.529183,196.830309 218.067777,47.1519356 273.067671,26.4015793 C328.065077,5.65371231 422.830679,121.642628 484.556517,285.255802 Z" id="Stroke-3"></path>
                    <path d="M560.778817,362.820524 C723.287454,426.522995 837.839097,522.591033 816.426042,577.219418 C795.012988,631.847803 645.690598,624.480698 483.179476,560.778227 C419.477005,723.286864 323.408967,837.839502 268.780582,816.42595 C214.152197,795.012398 221.519302,645.690009 285.221773,483.178887 C122.713136,419.476415 8.16049842,323.408378 29.5740501,268.779993 C50.9876019,214.151607 200.309991,221.518712 362.821113,285.221183 C426.523585,122.712546 522.591622,8.16090274 577.220007,29.5739575 C631.848393,50.9870123 624.481288,200.309402 560.778817,362.820524 Z" id="Stroke-4"></path>
                </g>
            </g>
        </g>
    </g>
</svg>