<?xml version="1.0" encoding="UTF-8"?>
<svg width="271px" height="287px" viewBox="0 0 271 287" version="1.1" xmlns="http://www.w3.org/2000/svg" xmlns:xlink="http://www.w3.org/1999/xlink">
    <!-- Generator: Sketch 57.1 (83088) - https://sketch.com -->
    <title>Group 3</title>
    <desc>Created with Sketch.</desc>
    <g id="Page-1" stroke="none" stroke-width="1" fill="none" fill-rule="evenodd" stroke-linecap="round" stroke-linejoin="round">
        <g id="Landing-Page" stroke="#32524B" stroke-width="1.5">
            <g id="Group-3" transform="translate(-168.000000, -152.000000)">
                <path d="M119.088646,119.089381 C119.088646,53.3620665 163.858299,0 219.00049,0 C274.142682,0 318.910619,53.3620665 318.910619,119.089381 C384.637934,119.089381 438,163.857318 438,218.99951 C438,274.141701 384.637934,318.911354 318.910619,318.911354 C318.910619,384.638179 274.142682,438 219.00049,438 C163.858299,438 119.088646,384.638179 119.088646,318.911354 C53.3618213,318.911354 0,274.141701 0,218.99951 C0,163.857318 53.3618213,119.089381 119.088646,119.089381 Z" id="Stroke-1"></path>
                <path d="M218.500507,77.2407468 C264.96249,30.7787629 334.334346,24.7044357 373.314955,63.685045 C412.295564,102.665654 406.221237,172.03751 359.759253,218.499493 C406.221237,264.963929 412.295564,334.333333 373.314955,373.314677 C334.334346,412.295777 264.96249,406.22145 218.500507,359.757995 C172.036071,406.22145 102.666667,412.295777 63.6853228,373.314677 C24.7042233,334.333333 30.7785504,264.963929 77.2420051,218.499493 C30.7785504,172.03751 24.7042233,102.665654 63.6853228,63.685045 C102.666667,24.7044357 172.036071,30.7787629 218.500507,77.2407468 Z" id="Stroke-2"></path>
            </g>
        </g>
    </g>
</svg>