<?xml version="1.0" encoding="UTF-8"?>
<svg width="64px" height="53px" viewBox="0 0 64 53" version="1.1" xmlns="http://www.w3.org/2000/svg" xmlns:xlink="http://www.w3.org/1999/xlink">
    <!-- Generator: Sketch 57.1 (83088) - https://sketch.com -->
    <title>Group 3</title>
    <desc>Created with Sketch.</desc>
    <g id="Page-1" stroke="none" stroke-width="1" fill="none" fill-rule="evenodd" stroke-linecap="round" stroke-linejoin="round">
        <g id="Landing-Page" transform="translate(-944.000000, -1951.000000)" stroke="#305049" stroke-width="1.5">
            <g id="Group-7" transform="translate(327.000000, 1590.000000)">
                <g id="Group-6" transform="translate(617.000000, 282.000000)">
                    <g id="Group-3">
                        <g transform="translate(-27.000000, 80.000000)">
                            <path d="M24.4702697,24.4704208 C24.4702697,10.9648082 33.6695135,0 45.0001008,0 C56.330688,0 65.5295792,10.9648082 65.5295792,24.4704208 C79.0351918,24.4704208 90,33.669312 90,44.9998992 C90,56.3304865 79.0351918,65.5297303 65.5295792,65.5297303 C65.5295792,79.0352422 56.330688,90 45.0001008,90 C33.6695135,90 24.4702697,79.0352422 24.4702697,65.5297303 C10.9647578,65.5297303 0,56.3304865 0,44.9998992 C0,33.669312 10.9647578,24.4704208 24.4702697,24.4704208 Z" id="Stroke-1-Copy"></path>
                            <path d="M44.5001052,15.1525097 C54.152872,5.49974297 68.5653073,4.23776366 76.6637718,12.3362282 C84.7622363,20.4346927 83.500257,34.847128 73.8474903,44.4998948 C83.500257,54.1531708 84.7622363,68.5650968 76.6637718,76.6637141 C68.5653073,84.7622805 54.152872,83.5003012 44.5001052,73.8472289 C34.8468292,83.5003012 20.4349032,84.7622805 12.3362859,76.6637141 C4.23771951,68.5650968 5.49969883,54.1531708 15.1527711,44.4998948 C5.49969883,34.847128 4.23771951,20.4346927 12.3362859,12.3362282 C20.4349032,4.23776366 34.8468292,5.49974297 44.5001052,15.1525097 Z" id="Stroke-2-Copy"></path>
                        </g>
                    </g>
                </g>
            </g>
        </g>
    </g>
</svg>