<?xml version="1.0" encoding="UTF-8"?>
<svg width="640px" height="274px" viewBox="0 0 640 274" version="1.1" xmlns="http://www.w3.org/2000/svg" xmlns:xlink="http://www.w3.org/1999/xlink">
    <!-- Generator: Sketch 57.1 (83088) - https://sketch.com -->
    <title>Group 3 Copy 2</title>
    <desc>Created with Sketch.</desc>
    <g id="Page-1" stroke="none" stroke-width="1" fill="none" fill-rule="evenodd" stroke-linecap="round" stroke-linejoin="round">
        <g id="Landing-Page" transform="translate(-698.000000, -567.000000)" stroke="#D0C0AB" stroke-width="1.5">
            <g id="Group-8" transform="translate(-423.000000, 567.000000)">
                <g id="Group-3-Copy-2" transform="translate(423.000000, 0.000000)">
                    <g transform="translate(685.000000, -393.000000)">
                        <path d="M181.079996,181.081114 C181.079996,81.1395805 249.1544,0 333.000746,0 C416.847092,0 484.918886,81.1395805 484.918886,181.081114 C584.860419,181.081114 666,249.152908 666,332.999254 C666,416.8456 584.860419,484.920004 484.918886,484.920004 C484.918886,584.860792 416.847092,666 333.000746,666 C249.1544,666 181.079996,584.860792 181.079996,484.920004 C81.1392077,484.920004 0,416.8456 0,332.999254 C0,249.152908 81.1392077,181.081114 181.079996,181.081114 Z" id="Stroke-1"></path>
                        <path d="M332.50077,117.676371 C403.159023,47.0181186 508.658049,37.78043 567.93881,97.0611903 C627.21957,156.341951 617.981881,261.840977 547.323629,332.49923 C617.981881,403.16121 627.21957,508.656509 567.93881,567.938387 C508.658049,627.219893 403.159023,617.982205 332.50077,547.321715 C261.83879,617.982205 156.343491,627.219893 97.0616128,567.938387 C37.7801068,508.656509 47.0177954,403.16121 117.678285,332.49923 C47.0177954,261.840977 37.7801068,156.341951 97.0616128,97.0611903 C156.343491,37.78043 261.83879,47.0181186 332.50077,117.676371 Z" id="Stroke-2"></path>
                    </g>
                </g>
            </g>
        </g>
    </g>
</svg>