<?xml version="1.0" encoding="UTF-8"?>
<svg width="56px" height="65px" viewBox="0 0 56 65" version="1.1" xmlns="http://www.w3.org/2000/svg" xmlns:xlink="http://www.w3.org/1999/xlink">
    <!-- Generator: Sketch 57.1 (83088) - https://sketch.com -->
    <title>Group 9</title>
    <desc>Created with Sketch.</desc>
    <g id="Page-1" stroke="none" stroke-width="1" fill="none" fill-rule="evenodd" stroke-linecap="round" stroke-linejoin="round">
        <g id="Landing-Page" transform="translate(-1066.000000, -1872.000000)" stroke="#305049" stroke-width="1.5">
            <g id="Group-7" transform="translate(327.000000, 1590.000000)">
                <g id="Group-6" transform="translate(617.000000, 282.000000)">
                    <g id="Group-3">
                        <g id="Group-9" transform="translate(123.000000, -36.000000)">
                            <path d="M27.1891885,27.1893565 C27.1891885,12.1831202 37.4105705,0 50.000112,0 C62.5896534,0 72.8106435,12.1831202 72.8106435,27.1893565 C87.8168798,27.1893565 100,37.4103466 100,49.999888 C100,62.5894295 87.8168798,72.8108115 72.8106435,72.8108115 C72.8106435,87.8169358 62.5896534,100 50.000112,100 C37.4105705,100 27.1891885,87.8169358 27.1891885,72.8108115 C12.1830642,72.8108115 0,62.5894295 0,49.999888 C0,37.4103466 12.1830642,27.1893565 27.1891885,27.1893565 Z" id="Stroke-1"></path>
                            <path d="M50.5001165,18.0221107 C61.1825117,7.33971556 77.1322734,5.94312511 86.0945741,14.9054259 C95.0568749,23.8677266 93.6602844,39.8174883 82.9778893,50.4998835 C93.6602844,61.1828423 95.0568749,77.1320405 86.0945741,86.0945103 C77.1322734,95.0569237 61.1825117,93.6603333 50.5001165,82.9775999 C39.8171577,93.6603333 23.8679595,95.0569237 14.9054897,86.0945103 C5.94307626,77.1320405 7.33966671,61.1828423 18.0224001,50.4998835 C7.33966671,39.8174883 5.94307626,23.8677266 14.9054897,14.9054259 C23.8679595,5.94312511 39.8171577,7.33971556 50.5001165,18.0221107 Z" id="Stroke-2"></path>
                        </g>
                    </g>
                </g>
            </g>
        </g>
    </g>
</svg>