<?xml version="1.0" encoding="UTF-8" standalone="no"?><!DOCTYPE svg PUBLIC "-//W3C//DTD SVG 1.1//EN" "http://www.w3.org/Graphics/SVG/1.1/DTD/svg11.dtd"><svg width="100%" height="100%" viewBox="0 0 90 90" version="1.1" xmlns="http://www.w3.org/2000/svg" xmlns:xlink="http://www.w3.org/1999/xlink" xml:space="preserve" xmlns:serif="http://www.serif.com/" style="fill-rule:evenodd;clip-rule:evenodd;stroke-linecap:round;stroke-linejoin:round;stroke-miterlimit:1.5;"><path d="M25.124,25.124c0,-13.038 8.882,-23.624 19.821,-23.624c10.939,0 19.82,10.586 19.82,23.624c13.039,0 23.624,8.882 23.624,19.821c0,10.939 -10.585,19.82 -23.624,19.82c0,13.039 -8.881,23.624 -19.82,23.624c-10.939,0 -19.821,-10.585 -19.821,-23.624c-13.038,0 -23.624,-8.881 -23.624,-19.82c0,-10.939 10.586,-19.821 23.624,-19.821Z" style="fill:none;stroke:#dc9870;stroke-width:3px;"/><path d="M44.945,16.915c9.219,-9.22 22.985,-10.425 30.72,-2.69c7.735,7.735 6.529,21.5 -2.69,30.72c9.219,9.219 10.425,22.985 2.69,30.72c-7.735,7.735 -21.501,6.529 -30.72,-2.69c-9.22,9.219 -22.985,10.425 -30.72,2.69c-7.735,-7.735 -6.53,-21.501 2.69,-30.72c-9.22,-9.22 -10.425,-22.985 -2.69,-30.72c7.735,-7.735 21.5,-6.53 30.72,2.69Z" style="fill:none;stroke:#dc9870;stroke-width:3px;"/></svg>